<svg id="Icons" height="512" viewBox="0 0 74 74" width="512" xmlns="http://www.w3.org/2000/svg"><path d="m10.731 66.936a3.681 3.681 0 0 1 -3.677-3.678v-22.547a1 1 0 0 1 2 0v22.547a1.678 1.678 0 1 0 3.355 0v-11.039a1 1 0 0 1 2 0v11.039a3.682 3.682 0 0 1 -3.678 3.678z"/><path d="m16.09 66.94a3.681 3.681 0 0 1 -3.68-3.68v-11.04a1 1 0 0 1 2 0v11.04a1.682 1.682 0 0 0 .5 1.193 1.673 1.673 0 0 0 2.85-1.193v-22.55a1 1 0 0 1 .278-.692l16.971-17.71a1.767 1.767 0 0 0 .5-1.228 1.734 1.734 0 0 0 -.583-1.3 1.785 1.785 0 0 0 -2.417.025l-12.338 11.788a1 1 0 0 1 -.691.277h-12.86a2.619 2.619 0 0 0 -2.62 2.61v15.34a1.492 1.492 0 0 0 .447 1.073 1.525 1.525 0 0 0 2.6-1.073v-8.6a1 1 0 1 1 2 0v8.6a3.525 3.525 0 0 1 -7.05 0v-15.34a4.62 4.62 0 0 1 4.62-4.61h12.463l12.049-11.513a3.8 3.8 0 0 1 5.129-.071 3.748 3.748 0 0 1 .193 5.407l-16.691 17.419v22.148a3.68 3.68 0 0 1 -3.67 3.68z"/><path d="m13.409 28.529a6.521 6.521 0 1 1 6.52-6.52 6.527 6.527 0 0 1 -6.52 6.52zm0-11.041a4.521 4.521 0 1 0 4.52 4.521 4.526 4.526 0 0 0 -4.52-4.521z"/><path d="m55.24 38.83h-2.97a1 1 0 1 1 0-2h2.97a1 1 0 0 1 0 2z"/><path d="m69 38.83h-6.76a1 1 0 1 1 0-2h6.76a1 1 0 0 0 1-1v-25.75a1 1 0 0 0 -1-1h-38.18a1 1 0 0 0 -1 1v9.529l1.309-1.252a3.8 3.8 0 0 1 5.129-.071 3.748 3.748 0 0 1 .193 5.407l-6.631 6.919v5.218a1 1 0 0 0 1 1h4.55a1 1 0 0 1 0 2h-4.55a3 3 0 0 1 -3-3v-5.62a1 1 0 0 1 .279-.692l6.91-7.21a1.767 1.767 0 0 0 .5-1.228 1.734 1.734 0 0 0 -.583-1.3 1.785 1.785 0 0 0 -2.417.025l-3 2.869a1 1 0 0 1 -1.692-.723v-11.871a3 3 0 0 1 3-3h38.183a3 3 0 0 1 3 3v25.75a3 3 0 0 1 -3 3z"/><path d="m45.27 38.83h-2.9a1 1 0 1 1 0-2h2.9a1 1 0 0 1 0 2z"/><path d="m62.6 30.973a1 1 0 0 1 -1-1v-13.567a1 1 0 0 1 2 0v13.567a1 1 0 0 1 -1 1z"/><path d="m55.95 30.973a1 1 0 0 1 -1-1v-8.9a1 1 0 0 1 2 0v8.9a1 1 0 0 1 -1 1z"/><path d="m49.3 30.973a1 1 0 0 1 -1-1v-13.567a1 1 0 0 1 2 0v13.567a1 1 0 0 1 -1 1z"/><path d="m42.657 30.973a1 1 0 0 1 -1-1v-8.9a1 1 0 0 1 2 0v8.9a1 1 0 0 1 -1 1z"/></svg>